<?xml version="1.0" encoding="UTF-8" standalone="no"?>
<!-- Created with Inkscape (http://www.inkscape.org/) -->

<svg
   xmlns:dc="http://purl.org/dc/elements/1.1/"
   xmlns:cc="http://creativecommons.org/ns#"
   xmlns:rdf="http://www.w3.org/1999/02/22-rdf-syntax-ns#"
   xmlns:svg="http://www.w3.org/2000/svg"
   xmlns="http://www.w3.org/2000/svg"
   xmlns:sodipodi="http://sodipodi.sourceforge.net/DTD/sodipodi-0.dtd"
   xmlns:inkscape="http://www.inkscape.org/namespaces/inkscape"
   width="32"
   height="32"
   id="svg4721"
   version="1.1"
   inkscape:version="0.48+devel r"
   viewBox="0 0 32 32.000001"
   sodipodi:docname="6864.svg">
  <defs
     id="defs4723" />
  <sodipodi:namedview
     id="base"
     pagecolor="#ffffff"
     bordercolor="#666666"
     borderopacity="1.0"
     inkscape:pageopacity="0.0"
     inkscape:pageshadow="2"
     inkscape:zoom="8"
     inkscape:cx="8.3650003"
     inkscape:cy="-18.650551"
     inkscape:document-units="px"
     inkscape:current-layer="layer1"
     showgrid="false"
     inkscape:snap-bbox="true"
     inkscape:bbox-paths="false"
     inkscape:bbox-nodes="false"
     inkscape:snap-bbox-edge-midpoints="false"
     inkscape:snap-bbox-midpoints="true" />
  <metadata
     id="metadata4726">
    <rdf:RDF>
      <cc:Work
         rdf:about="">
        <dc:format>image/svg+xml</dc:format>
        <dc:type
           rdf:resource="http://purl.org/dc/dcmitype/StillImage" />
        <dc:title />
      </cc:Work>
    </rdf:RDF>
  </metadata>
  <g
     inkscape:label="Layer 1"
     inkscape:groupmode="layer"
     id="layer1"
     transform="translate(0,-1020.3622)">
    <path
       style="fill:#bebebe;fill-opacity:1;fill-rule:nonzero;stroke:none"
       d="M 16 0.8359375 C 14.974273 0.8359375 12.951172 1.2539062 12.951172 1.2539062 C 12.306344 1.3429062 12.66915 2.6031314 12.912109 3.2070312 C 13.027786 3.4945312 14.685547 3.8632813 14.685547 3.8632812 L 14.644531 5.7773438 C 14.644531 5.7773438 11.868949 6.1944719 11 6.9511719 C 10.13105 7.7078719 9.4278062 7.80676 8.3691406 10.318359 C 7.7071355 11.888959 6.9133084 19.385244 6.3964844 21.714844 C 6.1886978 22.651444 5.9732071 23.188914 5.7792969 23.570312 L 22.341797 8.0917969 C 21.888868 7.5863969 21.467929 7.3586719 21 6.9511719 C 20.131049 6.1944719 17.355469 5.7773438 17.355469 5.7773438 L 17.314453 3.8632812 C 17.314453 3.8632812 18.972215 3.4945312 19.087891 3.2070312 C 19.330852 2.6031314 19.693658 1.3430062 19.048828 1.2539062 C 19.048828 1.2539062 17.025727 0.8359375 16 0.8359375 z M 27.101562 6.6445312 L 23.492188 10.015625 L 8.8710938 23.677734 L 8.2285156 24.279297 L 6.8535156 25.564453 L 4.1210938 28.117188 L 2.7226562 29.423828 L 4.21875 31.023438 L 7.3300781 28.117188 L 13.072266 28.117188 C 13.068966 28.165187 13.050781 28.207159 13.050781 28.255859 C 13.050781 29.858559 14.374337 31.164062 16 31.164062 C 17.625664 31.164062 18.949219 29.858559 18.949219 28.255859 C 18.949219 28.199859 18.933977 28.150303 18.929688 28.095703 L 28.113281 28.095703 C 28.588103 28.095303 28.749628 27.297866 28.75 26.822266 C 28.750372 26.346766 28.589586 25.546575 28.113281 25.546875 L 10.064453 25.5625 L 11.443359 24.273438 L 16 24.265625 L 26.738281 24.285156 C 26.738281 24.285156 26.120341 24.044444 25.603516 21.714844 C 25.214599 19.961791 24.669049 15.285981 24.140625 12.408203 L 28.597656 8.2441406 L 27.101562 6.6445312 z "
       transform="translate(-5e-7,1020.3622)"
       id="path4567" />
  </g>
</svg>
