<?xml version="1.0" encoding="UTF-8" standalone="no"?>
<!-- Created with Inkscape (http://www.inkscape.org/) -->

<svg
   xmlns:dc="http://purl.org/dc/elements/1.1/"
   xmlns:cc="http://creativecommons.org/ns#"
   xmlns:rdf="http://www.w3.org/1999/02/22-rdf-syntax-ns#"
   xmlns:svg="http://www.w3.org/2000/svg"
   xmlns="http://www.w3.org/2000/svg"
   xmlns:sodipodi="http://sodipodi.sourceforge.net/DTD/sodipodi-0.dtd"
   xmlns:inkscape="http://www.inkscape.org/namespaces/inkscape"
   width="32"
   height="32"
   id="svg4721"
   version="1.1"
   inkscape:version="0.48+devel r"
   viewBox="0 0 32 32.000001"
   sodipodi:docname="6865.svg">
  <defs
     id="defs4723" />
  <sodipodi:namedview
     id="base"
     pagecolor="#ffffff"
     bordercolor="#666666"
     borderopacity="1.0"
     inkscape:pageopacity="0.0"
     inkscape:pageshadow="2"
     inkscape:zoom="22.627417"
     inkscape:cx="6.6303322"
     inkscape:cy="15.193088"
     inkscape:document-units="px"
     inkscape:current-layer="layer1"
     showgrid="false"
     inkscape:snap-bbox="true"
     inkscape:bbox-paths="false"
     inkscape:bbox-nodes="false"
     inkscape:snap-bbox-edge-midpoints="false"
     inkscape:snap-bbox-midpoints="true" />
  <metadata
     id="metadata4726">
    <rdf:RDF>
      <cc:Work
         rdf:about="">
        <dc:format>image/svg+xml</dc:format>
        <dc:type
           rdf:resource="http://purl.org/dc/dcmitype/StillImage" />
        <dc:title></dc:title>
      </cc:Work>
    </rdf:RDF>
  </metadata>
  <g
     inkscape:label="Layer 1"
     inkscape:groupmode="layer"
     id="layer1"
     transform="translate(0,-1020.3622)">
    <g
       id="g4192">
      <path
         id="path4567"
         transform="translate(-5e-7,1020.3622)"
         d="M 16 0.8359375 C 14.974273 0.8359375 12.951172 1.2539062 12.951172 1.2539062 C 12.306343 1.3429062 12.669152 2.6031313 12.912109 3.2070312 C 13.027786 3.4945312 14.685547 3.8632812 14.685547 3.8632812 L 14.644531 5.7773438 C 14.644531 5.7773438 11.868949 6.1944719 11 6.9511719 C 10.13105 7.7078719 9.4278062 7.8067595 8.3691406 10.318359 C 7.7071355 11.888959 6.9133084 19.385244 6.3964844 21.714844 C 6.1886978 22.651448 5.9732071 23.188939 5.7792969 23.570312 L 22.341797 8.0917969 C 21.888868 7.5863944 21.467929 7.3586542 21 6.9511719 C 20.13105 6.1944719 17.355469 5.7773438 17.355469 5.7773438 L 17.314453 3.8632812 C 17.314453 3.8632812 18.972214 3.4945312 19.087891 3.2070312 C 19.330852 2.6031313 19.693661 1.3430062 19.048828 1.2539062 C 19.048828 1.2539062 17.025727 0.8359375 16 0.8359375 z M 23.492188 10.015625 L 8.2285156 24.279297 L 16 24.265625 L 26.738281 24.285156 C 26.738281 24.285156 26.12034 24.044444 25.603516 21.714844 C 25.086692 19.385244 24.292864 11.888959 23.630859 10.318359 C 23.582798 10.204336 23.538829 10.119989 23.492188 10.015625 z "
         style="fill:#808080;fill-opacity:1;fill-rule:nonzero;stroke:none" />
      <path
         id="path4569"
         transform="translate(-5e-7,1020.3622)"
         d="M 28.113281 25.546875 L 6.8535156 25.564453 L 4.1210938 28.117188 L 13.072266 28.117188 C 13.068966 28.165187 13.050781 28.207359 13.050781 28.255859 C 13.050781 29.858559 14.374337 31.164062 16 31.164062 C 17.625664 31.164062 18.949219 29.858559 18.949219 28.255859 C 18.949219 28.199859 18.933977 28.150303 18.929688 28.095703 L 28.113281 28.095703 C 28.588103 28.095303 28.749628 27.297866 28.75 26.822266 C 28.750372 26.346766 28.589586 25.546575 28.113281 25.546875 z "
         style="fill:#808080;fill-opacity:1;fill-rule:nonzero;stroke:none" />
      <rect
         transform="matrix(0.73066787,-0.68273308,0.68273311,0.73066785,0,0)"
         style="fill:#808080;fill-opacity:1;fill-rule:evenodd;stroke:none"
         id="rect5398"
         width="33.364929"
         height="2.1904175"
         x="-714.7337"
         y="768.90393"
         rx="0"
         ry="0" />
    </g>
  </g>
</svg>
