<?xml version="1.0" encoding="UTF-8" standalone="no"?>
<!-- Created with Inkscape (http://www.inkscape.org/) -->

<svg
   xmlns:dc="http://purl.org/dc/elements/1.1/"
   xmlns:cc="http://creativecommons.org/ns#"
   xmlns:rdf="http://www.w3.org/1999/02/22-rdf-syntax-ns#"
   xmlns:svg="http://www.w3.org/2000/svg"
   xmlns="http://www.w3.org/2000/svg"
   xmlns:sodipodi="http://sodipodi.sourceforge.net/DTD/sodipodi-0.dtd"
   xmlns:inkscape="http://www.inkscape.org/namespaces/inkscape"
   width="32"
   height="32"
   id="svg4721"
   version="1.1"
   inkscape:version="0.48+devel r"
   viewBox="0 0 32 32.000001"
   sodipodi:docname="6867.svg">
  <defs
     id="defs4723" />
  <sodipodi:namedview
     id="base"
     pagecolor="#ffffff"
     bordercolor="#666666"
     borderopacity="1.0"
     inkscape:pageopacity="0.0"
     inkscape:pageshadow="2"
     inkscape:zoom="5.6568542"
     inkscape:cx="32.030938"
     inkscape:cy="31.01293"
     inkscape:document-units="px"
     inkscape:current-layer="layer1"
     showgrid="false"
     inkscape:snap-bbox="true"
     inkscape:bbox-paths="false"
     inkscape:bbox-nodes="false"
     inkscape:snap-bbox-edge-midpoints="false"
     inkscape:snap-bbox-midpoints="true" />
  <metadata
     id="metadata4726">
    <rdf:RDF>
      <cc:Work
         rdf:about="">
        <dc:format>image/svg+xml</dc:format>
        <dc:type
           rdf:resource="http://purl.org/dc/dcmitype/StillImage" />
        <dc:title></dc:title>
      </cc:Work>
    </rdf:RDF>
  </metadata>
  <g
     inkscape:label="Layer 1"
     inkscape:groupmode="layer"
     id="layer1"
     transform="translate(0,-1020.3622)">
    <g
       style="fill:#cccccc;fill-opacity:1"
       transform="matrix(5.6028595,0,0,5.6028595,1354.4441,802.2166)"
       id="g4563">
      <g
         style="fill:#cccccc;fill-opacity:1"
         transform="matrix(0.11378769,0,0,0.11378769,-242.98225,-73.902339)"
         id="g4565"
         inkscape:label="Layer 1">
        <path
           id="path4567"
           transform="translate(0,980.36218)"
           d="m 36,12.59375 c -1.608892,0 -4.78125,0.65625 -4.78125,0.65625 -1.011439,0.13975 -0.443593,2.11524 -0.0625,3.0625 0.181444,0.45101 2.78125,1.03125 2.78125,1.03125 l -0.0625,3 c 0,0 -4.35577,0.65675 -5.71875,1.84375 -1.362981,1.1869 -2.464443,1.34165 -4.125,5.28125 -1.03838,2.4635 -2.283092,14.221 -3.09375,17.875 -0.810658,3.654 -1.78125,4.03125 -1.78125,4.03125 L 36,49.34375 52.84375,49.375 c 0,0 -0.970592,-0.37725 -1.78125,-4.03125 -0.810658,-3.654 -2.05537,-15.4115 -3.09375,-17.875 -1.660557,-3.9396 -2.762019,-4.09435 -4.125,-5.28125 C 42.48077,21.0005 38.125,20.34375 38.125,20.34375 l -0.0625,-3 c 0,0 2.599806,-0.58024 2.78125,-1.03125 0.381093,-0.94726 0.948939,-2.92275 -0.0625,-3.0625 0,0 -3.172358,-0.65625 -4.78125,-0.65625 z"
           style="fill:#cccccc;fill-opacity:1;fill-rule:nonzero;stroke:none"
           inkscape:connector-curvature="0" />
        <path
           id="path4569"
           d="m 55.000074,1031.7157 -37.96875,0.031 c -0.738523,6e-4 -1.02415,1.2193 -1.03125,1.9687 -0.0071,0.7495 0.239504,2.0319 1,2.0313 l 14.40625,0 c -0.0052,0.075 -0.03125,0.1419 -0.03125,0.2187 0,2.514 2.075085,4.5625 4.625,4.5625 2.549915,0 4.625,-2.0485 4.625,-4.5625 0,-0.088 -0.02452,-0.1644 -0.03125,-0.25 l 14.40625,0 c 0.744776,-6e-4 0.999416,-1.254 1,-2 5.84e-4,-0.7459 -0.252897,-2.0006 -1,-2 z"
           style="fill:#cccccc;fill-opacity:1;fill-rule:nonzero;stroke:none"
           inkscape:connector-curvature="0" />
      </g>
    </g>
  </g>
</svg>
