<?xml version="1.0" encoding="UTF-8" standalone="no"?>
<!-- Created with Inkscape (http://www.inkscape.org/) -->

<svg
   xmlns:dc="http://purl.org/dc/elements/1.1/"
   xmlns:cc="http://creativecommons.org/ns#"
   xmlns:rdf="http://www.w3.org/1999/02/22-rdf-syntax-ns#"
   xmlns:svg="http://www.w3.org/2000/svg"
   xmlns="http://www.w3.org/2000/svg"
   xmlns:sodipodi="http://sodipodi.sourceforge.net/DTD/sodipodi-0.dtd"
   xmlns:inkscape="http://www.inkscape.org/namespaces/inkscape"
   width="32"
   height="32"
   id="svg4721"
   version="1.1"
   inkscape:version="0.48+devel r"
   viewBox="0 0 32 32.000001"
   sodipodi:docname="6864.svg">
  <defs
     id="defs4723" />
  <sodipodi:namedview
     id="base"
     pagecolor="#ffffff"
     bordercolor="#666666"
     borderopacity="1.0"
     inkscape:pageopacity="0.0"
     inkscape:pageshadow="2"
     inkscape:zoom="5.6"
     inkscape:cx="-31.184125"
     inkscape:cy="8.4127341"
     inkscape:document-units="px"
     inkscape:current-layer="layer1"
     showgrid="false"
     inkscape:snap-bbox="true"
     inkscape:bbox-paths="false"
     inkscape:bbox-nodes="false"
     inkscape:snap-bbox-edge-midpoints="true"
     inkscape:snap-bbox-midpoints="false"
     showguides="false"
     inkscape:guide-bbox="true"
     inkscape:snap-global="true"
     inkscape:snap-smooth-nodes="true"
     inkscape:object-nodes="true"
     inkscape:snap-intersection-paths="true"
     inkscape:object-paths="true"
     inkscape:snap-midpoints="true"
     inkscape:snap-object-midpoints="true"
     inkscape:snap-center="true">
    <sodipodi:guide
       orientation="0,1"
       position="79.598214,2.6785714"
       id="guide4709" />
    <sodipodi:guide
       orientation="1,0"
       position="26.818594,7.8951615"
       id="guide4711" />
    <sodipodi:guide
       orientation="0,1"
       position="73.035714,3.75"
       id="guide5103" />
  </sodipodi:namedview>
  <metadata
     id="metadata4726">
    <rdf:RDF>
      <cc:Work
         rdf:about="">
        <dc:format>image/svg+xml</dc:format>
        <dc:type
           rdf:resource="http://purl.org/dc/dcmitype/StillImage" />
        <dc:title />
      </cc:Work>
    </rdf:RDF>
  </metadata>
  <g
     inkscape:label="Layer 1"
     inkscape:groupmode="layer"
     id="layer1"
     transform="translate(0,-1020.3622)">
    <path
       id="path5002"
       d="m 16.411131,1023.3979 c -0.870293,0 -2.585938,0.3554 -2.585938,0.3554 -0.54711,0.076 -0.241296,1.1439 -0.03515,1.6563 0.09815,0.2439 1.50586,0.5586 1.50586,0.5586 l -0.03516,1.6211 c 0,0 -2.354524,0.356 -3.091797,0.998 -0.737271,0.6421 -1.334182,0.7264 -2.2324214,2.8574 -0.5296382,1.2566 -1.1521558,6.8692 -1.5898437,9.1758 L 20.666993,1028.599 c -0.0049,0 -0.0088,-0.01 -0.01367,-0.012 -0.737274,-0.642 -3.091797,-0.998 -3.091797,-0.998 l -0.03516,-1.6211 c 0,0 1.405759,-0.3147 1.503906,-0.5586 0.206145,-0.5124 0.513911,-1.5807 -0.0332,-1.6563 0,0 -1.715644,-0.3554 -2.585937,-0.3554 z m 9.558594,4.039 -3.400391,3.3184 -12.8437499,12.5351 -2.2792969,2.2246 -0.00195,0 -1.7519531,1.709 -1.5722656,1.5352 1.9101562,1.9961 3.1503906,-3.0742 4.7460947,0 c -0.0028,0.041 -0.01758,0.078 -0.01758,0.1191 0,1.3599 1.122636,2.4668 2.501954,2.4668 1.379318,0 2.501953,-1.1069 2.501953,-2.4668 0,-0.048 -0.01394,-0.089 -0.01758,-0.1348 l 7.792968,0 c 0.40287,-3e-4 0.540699,-0.6785 0.541015,-1.082 3.15e-4,-0.4034 -0.136887,-1.0823 -0.541015,-1.082 l -15.285155,0.012 2.285155,-2.2305 2.722656,-0.01 9.111328,0.018 c 0,0 -0.524384,-0.205 -0.962891,-2.1816 -0.307141,-1.3845 -0.729853,-4.8671 -1.148437,-7.3184 l 4.46875,-4.3613 -1.910157,-1.9961 z"
       style="fill:#000000;fill-opacity:0.29803922;fill-rule:nonzero;stroke:none"
       inkscape:connector-curvature="0" />
    <path
       inkscape:connector-curvature="0"
       style="fill:#19b6ee;fill-opacity:1;fill-rule:nonzero;stroke:none"
       d="m 16.411131,1021.9691 c -0.870293,0 -2.585938,0.3554 -2.585938,0.3554 -0.547111,0.076 -0.241297,1.1439 -0.03516,1.6563 0.09815,0.2439 1.50586,0.5586 1.50586,0.5586 l -0.03516,1.6211 c 0,0 -2.354524,0.356 -3.091797,0.998 -0.737271,0.6421 -1.334182,0.7264 -2.2324214,2.8574 -0.5296382,1.2566 -1.1521558,6.8692 -1.5898437,9.1758 L 20.66699,1027.1702 c -0.0049,-0 -0.0088,-0.01 -0.01367,-0.012 -0.737275,-0.642 -3.091798,-0.998 -3.091798,-0.998 l -0.03516,-1.6211 c 0,0 1.405759,-0.3147 1.503907,-0.5586 0.206144,-0.5124 0.513911,-1.5807 -0.0332,-1.6563 0,0 -1.715645,-0.3554 -2.585938,-0.3554 z m 9.558594,4.039 -3.400391,3.3184 -12.8437499,12.5351 -2.2792969,2.2246 -0.00195,0 -1.7519531,1.709 -1.5722656,1.5352 1.9101562,1.9961 3.1503906,-3.0742 4.7460937,0 c -0.0028,0.041 -0.01758,0.078 -0.01758,0.1191 0,1.3599 1.122635,2.4668 2.501953,2.4668 1.379319,0 2.501953,-1.1069 2.501953,-2.4668 0,-0.048 -0.01394,-0.089 -0.01758,-0.1348 l 7.792969,0 c 0.40287,-3e-4 0.540699,-0.6785 0.541015,-1.082 3.16e-4,-0.4034 -0.136887,-1.0823 -0.541015,-1.082 l -15.285156,0.012 2.285156,-2.2305 2.722656,-0.01 9.111328,0.018 c 0,0 -0.524385,-0.205 -0.96289,-2.1816 -0.307141,-1.3845 -0.729854,-4.8671 -1.148437,-7.3184 l 4.46875,-4.3613 -1.910156,-1.9961 z"
       id="path4258" />
  </g>
</svg>
