<?xml version="1.0" encoding="UTF-8" standalone="no"?>
<!-- Created with Inkscape (http://www.inkscape.org/) -->

<svg
   xmlns:dc="http://purl.org/dc/elements/1.1/"
   xmlns:cc="http://creativecommons.org/ns#"
   xmlns:rdf="http://www.w3.org/1999/02/22-rdf-syntax-ns#"
   xmlns:svg="http://www.w3.org/2000/svg"
   xmlns="http://www.w3.org/2000/svg"
   xmlns:sodipodi="http://sodipodi.sourceforge.net/DTD/sodipodi-0.dtd"
   xmlns:inkscape="http://www.inkscape.org/namespaces/inkscape"
   width="32"
   height="32"
   id="svg4721"
   version="1.1"
   inkscape:version="0.48+devel r"
   viewBox="0 0 32 32.000001"
   sodipodi:docname="6867.svg">
  <defs
     id="defs4723" />
  <sodipodi:namedview
     id="base"
     pagecolor="#ffffff"
     bordercolor="#666666"
     borderopacity="1.0"
     inkscape:pageopacity="0.0"
     inkscape:pageshadow="2"
     inkscape:zoom="5.6"
     inkscape:cx="-68.288854"
     inkscape:cy="-2.5558249"
     inkscape:document-units="px"
     inkscape:current-layer="layer1"
     showgrid="false"
     inkscape:snap-bbox="true"
     inkscape:bbox-paths="false"
     inkscape:bbox-nodes="false"
     inkscape:snap-bbox-edge-midpoints="false"
     inkscape:snap-bbox-midpoints="true"
     showguides="true"
     inkscape:guide-bbox="true" />
  <metadata
     id="metadata4726">
    <rdf:RDF>
      <cc:Work
         rdf:about="">
        <dc:format>image/svg+xml</dc:format>
        <dc:type
           rdf:resource="http://purl.org/dc/dcmitype/StillImage" />
        <dc:title />
      </cc:Work>
    </rdf:RDF>
  </metadata>
  <g
     inkscape:label="Layer 1"
     inkscape:groupmode="layer"
     id="layer1"
     transform="translate(0,-1020.3622)">
    <g
       id="g4304"
       transform="matrix(0.84846503,0,0,0.84846503,132.42155,142.81297)">
      <g
         transform="translate(-154.28572,18.571429)"
         id="g4252">
        <path
           id="path4567"
           d="m 17.071404,1019.3941 c -1.025727,0 -3.048221,0.4184 -3.048221,0.4184 -0.644829,0.089 -0.282807,1.3485 -0.03985,1.9524 0.115677,0.2875 1.773148,0.6575 1.773148,0.6575 l -0.03985,1.9126 c 0,0 -2.776962,0.4187 -3.645911,1.1754 -0.86895,0.7567 -1.571173,0.8554 -2.6298381,3.367 -0.6620051,1.5706 -1.4555544,9.0664 -1.9723784,11.396 -0.516824,2.3296 -1.1356118,2.5701 -1.1356118,2.5701 l 10.7385043,-0.02 10.738505,0.02 c 0,0 -0.618788,-0.2405 -1.135612,-2.5701 -0.516824,-2.3296 -1.310374,-9.8254 -1.972379,-11.396 -1.058665,-2.5116 -1.760887,-2.6103 -2.629837,-3.367 -0.86895,-0.7567 -3.645912,-1.1754 -3.645912,-1.1754 l -0.03985,-1.9126 c 0,0 1.657471,-0.37 1.773148,-0.6575 0.242961,-0.6039 0.604983,-1.8633 -0.03985,-1.9524 0,0 -2.022494,-0.4184 -3.048221,-0.4184 z"
           style="fill:#000000;fill-opacity:0.29803922;fill-rule:nonzero;stroke:none"
           inkscape:connector-curvature="0" />
        <path
           id="path4569"
           d="m 29.184644,1045.4443 -24.206462,0.02 c -0.4708354,4e-4 -0.652933,0.7773 -0.6574595,1.2551 -0.00453,0.4778 0.1526925,1.2954 0.6375365,1.295 l 9.184509,0 c -0.0033,0.048 -0.01992,0.091 -0.01992,0.1395 0,1.6027 1.322943,2.9087 2.948606,2.9087 1.625664,0 2.948606,-1.306 2.948606,-2.9087 0,-0.056 -0.01563,-0.1049 -0.01992,-0.1594 l 9.18451,0 c 0.474822,-4e-4 0.637164,-0.7995 0.637536,-1.2751 3.72e-4,-0.4755 -0.161231,-1.2755 -0.637536,-1.2751 z"
           style="fill:#000000;fill-opacity:0.29803922;fill-rule:nonzero;stroke:none"
           inkscape:connector-curvature="0" />
      </g>
      <g
         transform="translate(-154.28572,17.244243)"
         style="fill:#dfdbd2;fill-opacity:1"
         id="g4256">
        <path
           inkscape:connector-curvature="0"
           style="fill:#dfdbd2;fill-opacity:1;fill-rule:nonzero;stroke:none"
           d="m 17.071404,1019.3941 c -1.025727,0 -3.048221,0.4184 -3.048221,0.4184 -0.644829,0.089 -0.282807,1.3485 -0.03985,1.9524 0.115677,0.2875 1.773148,0.6575 1.773148,0.6575 l -0.03985,1.9126 c 0,0 -2.776962,0.4187 -3.645911,1.1754 -0.86895,0.7567 -1.571173,0.8554 -2.6298381,3.367 -0.6620051,1.5706 -1.4555544,9.0664 -1.9723784,11.396 -0.516824,2.3296 -1.1356118,2.5701 -1.1356118,2.5701 l 10.7385043,-0.02 10.738505,0.02 c 0,0 -0.618788,-0.2405 -1.135612,-2.5701 -0.516824,-2.3296 -1.310374,-9.8254 -1.972379,-11.396 -1.058665,-2.5116 -1.760887,-2.6103 -2.629837,-3.367 -0.86895,-0.7567 -3.645912,-1.1754 -3.645912,-1.1754 l -0.03985,-1.9126 c 0,0 1.657471,-0.37 1.773148,-0.6575 0.242961,-0.6039 0.604983,-1.8633 -0.03985,-1.9524 0,0 -2.022494,-0.4184 -3.048221,-0.4184 z"
           id="path4258" />
        <path
           inkscape:connector-curvature="0"
           style="fill:#dfdbd2;fill-opacity:1;fill-rule:nonzero;stroke:none"
           d="m 29.184644,1045.4443 -24.206462,0.02 c -0.4708354,4e-4 -0.652933,0.7773 -0.6574595,1.2551 -0.00453,0.4778 0.1526925,1.2954 0.6375365,1.295 l 9.184509,0 c -0.0033,0.048 -0.01992,0.091 -0.01992,0.1395 0,1.6027 1.322943,2.9087 2.948606,2.9087 1.625664,0 2.948606,-1.306 2.948606,-2.9087 0,-0.056 -0.01563,-0.1049 -0.01992,-0.1594 l 9.18451,0 c 0.474822,-4e-4 0.637164,-0.7995 0.637536,-1.2751 3.72e-4,-0.4755 -0.161231,-1.2755 -0.637536,-1.2751 z"
           id="path4260" />
      </g>
    </g>
  </g>
</svg>
